<?xml version="1.0" standalone="yes"?>
<svg xmlns="http://www.w3.org/2000/svg" width="61" height="59">
<path style="fill:#000000; stroke:none;" d="M47 43L47 42L51 39C54.8926 45.4043 57.8988 38.0682 52.9552 33.0201C47.9419 27.9006 41.0344 31.0744 47 35C42.593 39.3255 37.1018 33.2982 34.5309 29C30.2738 21.8828 40.7167 12.8348 31.7755 5.70293C16.4038 -6.55818 -9.46348 23.5475 7.18904 34.7716C15.0325 40.0582 23.1763 31.2632 30 37.1019C35.7411 42.0142 42.3732 53.3056 49.9807 55.1096C59.4639 57.3582 49.4578 44.7471 47 43z"/>
<path style="fill:#ffffff; stroke:none;" d="M17 18C-4.38135 19.1739 22.5646 41.6863 21 22C40.7676 21.3567 18.0973 -1.98544 17 18z"/>
</svg>
