<?xml version="1.0" standalone="yes"?>
<svg xmlns="http://www.w3.org/2000/svg" width="62" height="57">
<path style="fill:#000000; stroke:none;" d="M5 54L8 54C8 41.4215 7.19719 28.5474 8.05401 16C8.2578 13.0158 12.2097 3.57114 6.07562 3.75154C0.205141 3.92419 4.73615 13.1252 4.94522 16C5.85651 28.5309 5 41.4338 5 54M11 41C17.4128 39.8958 23.327 35.8153 30 36.1435C38.5649 36.5648 45.0292 42.4122 53.9954 38.713C62.2502 35.3072 60.0033 25.3254 60 18C59.9988 15.4325 60.7723 10.6183 58.3966 8.81636C55.1786 6.37548 48.8241 11.7232 45 11.436C39.8765 11.0512 35.268 7.91779 30 7.51775C7.35578 5.79818 11 24.922 11 41z"/>
</svg>
