<?xml version="1.0" standalone="yes"?>
<svg xmlns="http://www.w3.org/2000/svg" width="56" height="61">
<path style="fill:#000000; stroke:none;" d="M39 20C41.6119 13.8085 39.7622 -2.30716 29.2276 4.02855C23.448 7.50457 23.0222 18.0159 16.8264 22.3966C12.9701 25.1232 5.79053 22.1388 3.60339 27.1481C1.71696 31.4688 1.12125 50.1718 5.3179 52.9722C9.16033 55.5363 16.4554 53.9826 21 55.3449C27.9233 57.4203 39.566 60.9414 45.8526 55.5664C50.9534 51.2052 56.1292 29.7918 52.2539 24.1088C49.1787 19.5992 43.8139 20.0032 39 20z"/>
<path style="fill:#ffffff; stroke:none;" d="M15 28L15 50C22.7267 51.1411 35.1438 57.809 42.6829 52.821C46.7693 50.1173 51.9429 29.3362 48.3812 25.6034C45.4806 22.5635 37.8286 24 34 24C34.5674 21.6047 35.4156 19.3572 36.0988 16.9985C36.919 14.1663 35.8935 3.63993 30.8503 8.62269C24.6186 14.7797 24.237 23.6896 15 28M8 45L8 50L10 50L10 45L8 45z"/>
</svg>
