<?xml version="1.0" standalone="yes"?>
<svg xmlns="http://www.w3.org/2000/svg" width="54" height="56">
<path style="fill:#000000; stroke:none;" d="M17 6L21 6C21 17.3583 18.2054 23.4808 12 33C9.34631 37.0708 2.51346 44.584 3.42593 49.7716C4.13051 53.7774 10.074 52.9951 13 53L40 53C42.905 52.9987 48.1924 53.8153 49.8673 50.6821C51.9778 46.7338 46.3038 40.1063 44.3079 37C37.322 26.1279 33 19.0632 33 6L37 6C34.9371 -0.215366 19.0629 -0.215374 17 6z"/>
<path style="fill:#ffffff; stroke:none;" d="M15 37L39 36C32.8797 24.9651 29 18.8442 29 6C21.3865 7.27059 25.1189 15.4224 23.3009 21C21.4229 26.762 16.8506 31.1923 15 37z"/>
</svg>
